<svg width="420" height="96" viewBox="0 0 420 96" fill="none" xmlns="http://www.w3.org/2000/svg">
  <defs>
    <linearGradient id="ppGradient" x1="12" y1="10" x2="86" y2="86" gradientUnits="userSpaceOnUse">
      <stop offset="0" stop-color="#00C6FF"/>
      <stop offset="0.52" stop-color="#5B8CFF"/>
      <stop offset="1" stop-color="#E23CFF"/>
    </linearGradient>
  </defs>
  <path d="M16 16H58C73.464 16 86 28.536 86 44C86 59.464 73.464 72 58 72H48V58H58C65.732 58 72 51.732 72 44C72 36.268 65.732 30 58 30H30V72H16V16Z" fill="url(#ppGradient)"/>
  <path d="M30 30H54V44H44V72H30V30Z" fill="#F8FAFF"/>
  <path d="M106 70V26H125.28C129.344 26 132.912 26.816 135.984 28.448C139.088 30.08 141.504 32.416 143.232 35.456C144.992 38.496 145.872 42.08 145.872 46.208C145.872 50.272 144.992 53.84 143.232 56.912C141.504 59.952 139.088 62.304 135.984 63.968C132.912 65.6 129.344 66.416 125.28 66.416H113.68V70H106ZM113.68 59.6H124.8C127.552 59.6 129.76 58.352 131.424 55.856C133.12 53.36 133.968 50.144 133.968 46.208C133.968 42.176 133.12 38.96 131.424 36.56C129.76 34.16 127.552 32.96 124.8 32.96H113.68V59.6Z" fill="#F4F8FF"/>
  <path d="M155.586 70V26H167.49V44.144H185.538V26H197.442V70H185.538V50.912H167.49V70H155.586Z" fill="#F4F8FF"/>
  <path d="M208.891 70V26H220.795V70H208.891Z" fill="#F4F8FF"/>
  <path d="M245.134 70.96C241.518 70.96 238.366 70.144 235.678 68.512C232.99 66.848 230.878 64.496 229.342 61.456C227.838 58.416 227.086 54.864 227.086 50.8V26H238.99V50.608C238.99 53.456 239.678 55.776 241.054 57.568C242.462 59.328 244.494 60.208 247.15 60.208C249.774 60.208 251.774 59.328 253.15 57.568C254.558 55.776 255.262 53.456 255.262 50.608V26H267.166V50.8C267.166 54.864 266.398 58.416 264.862 61.456C263.358 64.496 261.262 66.848 258.574 68.512C255.886 70.144 252.738 70.96 249.126 70.96H245.134Z" fill="#F4F8FF"/>
  <path d="M274.395 70V26H286.299V59.12H305.387V70H274.395Z" fill="#F4F8FF"/>
  <path d="M311.233 70V26H343.041V36.848H323.137V43.568H340.449V53.744H323.137V59.152H343.041V70H311.233Z" fill="#F4F8FF"/>
</svg>
